<svg xmlns="http://www.w3.org/2000/svg" version="1.1" xmlns:xlink="http://www.w3.org/1999/xlink" xmlns:svgjs="http://svgjs.com/svgjs" width="900.000000pt" height="900.000000pt"><svg version="1.0" xmlns="http://www.w3.org/2000/svg" width="900.000000pt" height="900.000000pt" viewBox="0 0 900.000000 900.000000" preserveAspectRatio="xMidYMid meet">
<metadata>
Created by potrace 1.10, written by Peter Selinger 2001-2011
</metadata>
<g transform="translate(0.000000,900.000000) scale(0.100000,-0.100000)" fill="#000000" stroke="none">
<path d="M730 8985 c0 -9 -14 -16 -37 -20 -39 -7 -141 -39 -171 -54 -9 -5 -37
-19 -62 -31 -94 -47 -213 -149 -287 -245 -63 -82 -132 -225 -156 -325 -16 -67
-22 -7524 -6 -7600 12 -58 43 -159 58 -188 5 -9 19 -37 31 -62 47 -94 149
-213 245 -287 85 -65 228 -133 330 -156 59 -14 7554 -17 7620 -4 56 12 140 44
230 90 102 51 238 175 307 278 53 80 128 245 128 282 0 38 12 67 26 67 12 0
14 565 14 3760 0 3195 -2 3760 -14 3760 -14 0 -26 29 -26 67 0 21 -6 37 -47
133 -87 201 -239 358 -433 448 -114 52 -140 62 -170 62 -17 0 -39 9 -50 20
-20 20 -33 20 -3775 20 -3279 0 -3755 -2 -3755 -15z m2254 -1821 c94 -44 145
-111 279 -364 152 -289 196 -371 296 -552 16 -29 50 -93 76 -143 26 -49 63
-119 83 -155 19 -36 55 -103 80 -150 86 -164 125 -235 132 -245 4 -5 25 -44
47 -85 22 -41 50 -91 62 -110 11 -19 24 -42 28 -50 8 -18 89 -158 103 -180 6
-8 15 -24 20 -35 6 -11 18 -32 28 -47 19 -30 161 -259 177 -286 38 -63 108
-162 115 -162 9 0 30 34 94 153 60 112 108 199 138 252 16 28 36 64 44 80 8
17 25 48 37 70 13 22 39 69 59 105 19 36 47 85 60 110 14 25 41 74 60 110 20
36 44 81 55 100 11 19 39 71 63 115 24 44 52 94 62 110 10 17 21 37 25 45 4 8
19 36 34 61 46 80 111 198 209 384 54 103 109 204 167 310 18 33 36 67 40 75
4 8 26 48 50 88 24 41 43 75 43 77 0 2 29 53 65 113 61 104 149 202 181 202 7
0 25 7 40 15 18 9 57 15 106 15 144 0 255 -68 317 -194 60 -122 51 -202 -39
-371 -79 -150 -121 -228 -146 -272 -13 -23 -39 -70 -57 -105 -39 -72 -98 -182
-135 -248 -13 -25 -38 -69 -54 -99 -69 -127 -81 -148 -102 -186 -58 -104 -86
-155 -121 -220 -21 -38 -41 -74 -45 -80 -4 -5 -22 -37 -40 -70 -18 -33 -45
-82 -60 -110 -15 -27 -43 -79 -62 -115 -52 -96 -99 -181 -119 -215 -10 -16
-28 -50 -40 -75 -13 -25 -37 -70 -54 -100 -29 -50 -56 -100 -161 -295 -30 -55
-83 -157 -146 -280 -64 -123 -149 -333 -181 -445 -50 -177 -50 -173 -54 -905
-2 -439 -7 -710 -14 -745 -15 -76 -46 -137 -93 -185 -172 -172 -463 -114 -554
110 -11 28 -23 68 -26 90 -3 23 -6 326 -6 675 -1 810 -12 961 -85 1185 -40
121 -113 259 -232 437 -151 224 -195 291 -250 383 -74 123 -63 103 -143 250
-24 44 -54 97 -67 117 -12 21 -23 40 -23 42 0 2 -20 39 -45 80 -25 42 -45 78
-45 81 0 2 -14 28 -31 57 -18 29 -52 91 -77 138 -24 47 -59 112 -77 145 -18
33 -65 123 -106 200 -40 77 -90 172 -111 210 -20 39 -49 93 -63 120 -15 28
-42 79 -62 115 -235 433 -260 497 -234 603 18 70 41 113 89 167 65 74 149 109
259 110 68 0 92 -4 137 -26z"></path>
</g>
</svg><style>@media (prefers-color-scheme: light) { :root { filter: none; } }
@media (prefers-color-scheme: dark) { :root { filter: invert(100%); } }
</style></svg>